<svg xmlns="http://www.w3.org/2000/svg" viewBox="0 0 400 220">
  <defs>
    <linearGradient id="bg" x1="0" y1="0" x2="0" y2="1">
      <stop offset="0" stop-color="#0C1428"/>
      <stop offset="1" stop-color="#090F1E"/>
    </linearGradient>
    <pattern id="dots" width="22" height="22" patternUnits="userSpaceOnUse">
      <circle cx="1" cy="1" r="1" fill="#94A3B8" opacity="0.08"/>
    </pattern>
  </defs>
  <rect width="400" height="220" fill="url(#bg)"/>
  <rect width="400" height="220" fill="url(#dots)"/>

  <!-- прибор: дуговая шкала -->
  <path d="M60 140 A 55 55 0 0 1 170 140" fill="none" stroke="#33415E" stroke-width="2"/>
  <path d="M60 140 A 55 55 0 0 1 148 96" fill="none" stroke="#6D86FF" stroke-width="2"/>
  <g stroke="#94A3B8" stroke-width="2" opacity="0.6">
    <path d="M60 140 L52 146"/>
    <path d="M74 104 L68 96"/>
    <path d="M115 85 V 75"/>
    <path d="M156 104 L162 96"/>
    <path d="M170 140 L178 146"/>
  </g>
  <!-- стрелка -->
  <path d="M115 140 L142 102" stroke="#6D86FF" stroke-width="2" stroke-linecap="round"/>
  <circle cx="115" cy="140" r="6" fill="#0C1428" stroke="#6D86FF" stroke-width="2"/>
  <path d="M92 164 H138" stroke="#33415E" stroke-width="2" stroke-linecap="round"/>

  <!-- трубопровод к резервуару -->
  <path d="M180 120 H 226" stroke="#4D6BFE" stroke-width="2" stroke-dasharray="5 5"/>

  <!-- резервуар -->
  <rect x="232" y="66" width="112" height="104" rx="10" fill="#4D6BFE" opacity="0.12" stroke="#6D86FF" stroke-width="2"/>
  <path d="M236 128 H340" stroke="#6D86FF" stroke-width="2"/>
  <path d="M236 128 V162 Q236 166 240 166 H336 Q340 166 340 162 V128" fill="#4D6BFE" opacity="0.28" stroke="none"/>
  <!-- люк -->
  <circle cx="288" cy="92" r="13" fill="#0C1428" stroke="#6D86FF" stroke-width="2"/>
  <path d="M288 83 V101 M279 92 H297" stroke="#6D86FF" stroke-width="2" stroke-linecap="round"/>

  <!-- волны порта -->
  <g stroke="#33415E" stroke-width="2" fill="none" stroke-linecap="round">
    <path d="M232 188 q8 -8 16 0 t16 0 t16 0 t16 0 t16 0 t16 0 t16 0"/>
  </g>
</svg>
